<?xml version="1.0" encoding="utf-8"?>
<svg xmlns="http://www.w3.org/2000/svg" xmlns:xlink="http://www.w3.org/1999/xlink" style="margin: auto; background: rgb(241, 242, 243); display: block; shape-rendering: auto;" width="137px" height="137px" viewBox="0 0 100 100" preserveAspectRatio="xMidYMid">
<g transform="rotate(0 50 50)">
  <rect x="49.5" y="11.5" rx="0.5" ry="2.5300000000000002" width="1" height="23" fill="#292664">
    <animate attributeName="opacity" values="1;0" keyTimes="0;1" dur="0.5235602094240838s" begin="-0.47993019197207676s" repeatCount="indefinite"></animate>
  </rect>
</g><g transform="rotate(30 50 50)">
  <rect x="49.5" y="11.5" rx="0.5" ry="2.5300000000000002" width="1" height="23" fill="#292664">
    <animate attributeName="opacity" values="1;0" keyTimes="0;1" dur="0.5235602094240838s" begin="-0.43630017452006975s" repeatCount="indefinite"></animate>
  </rect>
</g><g transform="rotate(60 50 50)">
  <rect x="49.5" y="11.5" rx="0.5" ry="2.5300000000000002" width="1" height="23" fill="#292664">
    <animate attributeName="opacity" values="1;0" keyTimes="0;1" dur="0.5235602094240838s" begin="-0.3926701570680628s" repeatCount="indefinite"></animate>
  </rect>
</g><g transform="rotate(90 50 50)">
  <rect x="49.5" y="11.5" rx="0.5" ry="2.5300000000000002" width="1" height="23" fill="#292664">
    <animate attributeName="opacity" values="1;0" keyTimes="0;1" dur="0.5235602094240838s" begin="-0.34904013961605584s" repeatCount="indefinite"></animate>
  </rect>
</g><g transform="rotate(120 50 50)">
  <rect x="49.5" y="11.5" rx="0.5" ry="2.5300000000000002" width="1" height="23" fill="#292664">
    <animate attributeName="opacity" values="1;0" keyTimes="0;1" dur="0.5235602094240838s" begin="-0.30541012216404884s" repeatCount="indefinite"></animate>
  </rect>
</g><g transform="rotate(150 50 50)">
  <rect x="49.5" y="11.5" rx="0.5" ry="2.5300000000000002" width="1" height="23" fill="#292664">
    <animate attributeName="opacity" values="1;0" keyTimes="0;1" dur="0.5235602094240838s" begin="-0.2617801047120419s" repeatCount="indefinite"></animate>
  </rect>
</g><g transform="rotate(180 50 50)">
  <rect x="49.5" y="11.5" rx="0.5" ry="2.5300000000000002" width="1" height="23" fill="#292664">
    <animate attributeName="opacity" values="1;0" keyTimes="0;1" dur="0.5235602094240838s" begin="-0.21815008726003488s" repeatCount="indefinite"></animate>
  </rect>
</g><g transform="rotate(210 50 50)">
  <rect x="49.5" y="11.5" rx="0.5" ry="2.5300000000000002" width="1" height="23" fill="#292664">
    <animate attributeName="opacity" values="1;0" keyTimes="0;1" dur="0.5235602094240838s" begin="-0.17452006980802792s" repeatCount="indefinite"></animate>
  </rect>
</g><g transform="rotate(240 50 50)">
  <rect x="49.5" y="11.5" rx="0.5" ry="2.5300000000000002" width="1" height="23" fill="#292664">
    <animate attributeName="opacity" values="1;0" keyTimes="0;1" dur="0.5235602094240838s" begin="-0.13089005235602094s" repeatCount="indefinite"></animate>
  </rect>
</g><g transform="rotate(270 50 50)">
  <rect x="49.5" y="11.5" rx="0.5" ry="2.5300000000000002" width="1" height="23" fill="#292664">
    <animate attributeName="opacity" values="1;0" keyTimes="0;1" dur="0.5235602094240838s" begin="-0.08726003490401396s" repeatCount="indefinite"></animate>
  </rect>
</g><g transform="rotate(300 50 50)">
  <rect x="49.5" y="11.5" rx="0.5" ry="2.5300000000000002" width="1" height="23" fill="#292664">
    <animate attributeName="opacity" values="1;0" keyTimes="0;1" dur="0.5235602094240838s" begin="-0.04363001745200698s" repeatCount="indefinite"></animate>
  </rect>
</g><g transform="rotate(330 50 50)">
  <rect x="49.5" y="11.5" rx="0.5" ry="2.5300000000000002" width="1" height="23" fill="#292664">
    <animate attributeName="opacity" values="1;0" keyTimes="0;1" dur="0.5235602094240838s" begin="0s" repeatCount="indefinite"></animate>
  </rect>
</g>
<!-- [ldio] generated by https://loading.io/ --></svg>